STARTFONT 2.1
COMMENT  (c) Copyright Bigelow & Holmes 1986, 1985. Lucida is a registered
COMMENT  trademark of Bigelow & Holmes. See LEGAL NOTICE file for terms 
COMMENT  of the license. 
FONT -B&H-Lucida-Bold-I-Normal-Sans-14-100-100-100-P-90-ISO8859-1
SIZE 10 100 100
FONTBOUNDINGBOX 28 15 -9 -3
STARTPROPERTIES 19
COMMENT Begin LogicalFontDescription
FONTNAME_REGISTRY ""
FOUNDRY "B&H"
FAMILY_NAME "Lucida"
WEIGHT_NAME "Bold"
SLANT "I"
SETWIDTH_NAME "Normal"
ADD_STYLE_NAME "Sans"
PIXEL_SIZE 14
POINT_SIZE 100
RESOLUTION_X 100
RESOLUTION_Y 100
SPACING "P"
AVERAGE_WIDTH 90
CHARSET_REGISTRY "ISO8859"
CHARSET_ENCODING "1"
COMMENT END LogicalFontDescription
FONT_ASCENT 13
FONT_DESCENT 3
DEFAULT_CHAR 32
COPYRIGHT "Copyright Bigelow & Holmes 1986, 1985."
ENDPROPERTIES
CHARS 228
STARTCHAR space
ENCODING 32
SWIDTH 42 0
DWIDTH 5 0
BBX 1 1 0 0
BITMAP
00
ENDCHAR
STARTCHAR exclam
ENCODING 33
SWIDTH 42 0
DWIDTH 5 0
BBX 5 10 1 0
BITMAP
38
38
30
30
70
60
60
00
00
E0
ENDCHAR
STARTCHAR quotedbl
ENCODING 34
SWIDTH 42 0
DWIDTH 7 0
BBX 6 4 2 6
BITMAP
CC
CC
CC
CC
ENDCHAR
STARTCHAR numbersign
ENCODING 35
SWIDTH 42 0
DWIDTH 10 0
BBX 9 10 1 0
BITMAP
0480
0900
0900
7F80
1200
2400
FF00
4800
4800
9000
ENDCHAR
STARTCHAR dollar
ENCODING 36
SWIDTH 42 0
DWIDTH 10 0
BBX 8 14 2 -2
BITMAP
04
0C
1F
3F
24
38
3C
1E
16
16
FE
FC
30
30
ENDCHAR
STARTCHAR percent
ENCODING 37
SWIDTH 42 0
DWIDTH 13 0
BBX 12 10 1 0
BITMAP
7030
D840
D880
D900
7200
04E0
09B0
1130
21B0
C0E0
ENDCHAR
STARTCHAR ampersand
ENCODING 38
SWIDTH 42 0
DWIDTH 11 0
BBX 11 10 1 0
BITMAP
0F00
1880
1980
1B00
3E20
6460
C4C0
C280
E380
7FC0
ENDCHAR
STARTCHAR quoteright
ENCODING 39
SWIDTH 42 0
DWIDTH 4 0
BBX 4 4 2 6
BITMAP
70
F0
60
E0
ENDCHAR
STARTCHAR parenleft
ENCODING 40
SWIDTH 42 0
DWIDTH 5 0
BBX 5 13 1 -3
BITMAP
08
18
30
60
60
E0
C0
C0
C0
C0
C0
60
20
ENDCHAR
STARTCHAR parenright
ENCODING 41
SWIDTH 42 0
DWIDTH 5 0
BBX 5 13 1 -3
BITMAP
20
30
18
18
18
18
18
38
30
30
60
C0
80
ENDCHAR
STARTCHAR asterisk
ENCODING 42
SWIDTH 42 0
DWIDTH 6 0
BBX 5 5 2 5
BITMAP
30
68
D8
D0
50
ENDCHAR
STARTCHAR plus
ENCODING 43
SWIDTH 42 0
DWIDTH 10 0
BBX 8 8 2 0
BITMAP
08
08
08
FF
10
10
10
10
ENDCHAR
STARTCHAR comma
ENCODING 44
SWIDTH 42 0
DWIDTH 5 0
BBX 4 5 0 -3
BITMAP
70
F0
30
60
C0
ENDCHAR
STARTCHAR minus
ENCODING 45
SWIDTH 42 0
DWIDTH 10 0
BBX 8 1 2 4
BITMAP
FF
ENDCHAR
STARTCHAR period
ENCODING 46
SWIDTH 42 0
DWIDTH 5 0
BBX 3 2 1 0
BITMAP
E0
E0
ENDCHAR
STARTCHAR slash
ENCODING 47
SWIDTH 42 0
DWIDTH 8 0
BBX 11 13 0 -3
BITMAP
0060
0080
0080
0100
0200
0200
0400
0800
0800
1000
2000
2000
C000
ENDCHAR
STARTCHAR zero
ENCODING 48
SWIDTH 42 0
DWIDTH 10 0
BBX 8 10 2 0
BITMAP
1E
32
63
63
E3
C7
C6
C6
4C
78
ENDCHAR
STARTCHAR one
ENCODING 49
SWIDTH 42 0
DWIDTH 10 0
BBX 5 10 3 0
BITMAP
F8
38
30
70
70
70
70
60
E0
E0
ENDCHAR
STARTCHAR two
ENCODING 50
SWIDTH 42 0
DWIDTH 10 0
BBX 9 10 1 0
BITMAP
3F00
2380
0180
0380
0300
0C00
1800
3000
E000
FF00
ENDCHAR
STARTCHAR three
ENCODING 51
SWIDTH 42 0
DWIDTH 10 0
BBX 8 10 2 0
BITMAP
3E
03
03
06
3C
06
06
06
8E
FC
ENDCHAR
STARTCHAR four
ENCODING 52
SWIDTH 42 0
DWIDTH 10 0
BBX 8 10 1 0
BITMAP
03
07
0E
16
26
66
FF
0C
0C
0C
ENDCHAR
STARTCHAR five
ENCODING 53
SWIDTH 42 0
DWIDTH 10 0
BBX 9 10 2 0
BITMAP
3F80
2000
2000
7C00
0E00
0700
0700
0700
8600
FC00
ENDCHAR
STARTCHAR six
ENCODING 54
SWIDTH 42 0
DWIDTH 10 0
BBX 9 10 2 0
BITMAP
1F80
3880
7000
7E00
E300
C300
C300
C300
6600
3C00
ENDCHAR
STARTCHAR seven
ENCODING 55
SWIDTH 42 0
DWIDTH 10 0
BBX 8 10 3 0
BITMAP
FF
02
04
0C
18
30
30
60
E0
C0
ENDCHAR
STARTCHAR eight
ENCODING 56
SWIDTH 42 0
DWIDTH 10 0
BBX 9 10 1 0
BITMAP
1F00
3180
2180
3B00
1E00
7F00
E300
C100
C300
7C00
ENDCHAR
STARTCHAR nine
ENCODING 57
SWIDTH 42 0
DWIDTH 10 0
BBX 9 10 1 0
BITMAP
1E00
3300
6180
6180
6180
6380
3F00
0700
8E00
F800
ENDCHAR
STARTCHAR colon
ENCODING 58
SWIDTH 42 0
DWIDTH 5 0
BBX 4 7 1 0
BITMAP
70
70
00
00
00
E0
E0
ENDCHAR
STARTCHAR semicolon
ENCODING 59
SWIDTH 42 0
DWIDTH 5 0
BBX 5 10 0 -3
BITMAP
38
78
00
00
00
70
F0
60
60
C0
ENDCHAR
STARTCHAR less
ENCODING 60
SWIDTH 42 0
DWIDTH 10 0
BBX 8 8 1 0
BITMAP
01
07
1C
60
E0
30
0C
02
ENDCHAR
STARTCHAR equal
ENCODING 61
SWIDTH 42 0
DWIDTH 10 0
BBX 9 5 1 1
BITMAP
7F80
0000
0000
0000
FF00
ENDCHAR
STARTCHAR greater
ENCODING 62
SWIDTH 42 0
DWIDTH 10 0
BBX 8 8 1 0
BITMAP
40
30
0C
07
06
18
E0
80
ENDCHAR
STARTCHAR question
ENCODING 63
SWIDTH 42 0
DWIDTH 8 0
BBX 7 10 2 0
BITMAP
FC
8E
06
0C
18
70
70
00
00
E0
ENDCHAR
STARTCHAR at
ENCODING 64
SWIDTH 42 0
DWIDTH 12 0
BBX 9 10 2 0
BITMAP
1E00
2100
4080
9E80
A680
A480
AC80
BF00
4000
3C00
ENDCHAR
STARTCHAR A
ENCODING 65
SWIDTH 42 0
DWIDTH 11 0
BBX 10 10 0 0
BITMAP
0700
0700
0F80
0B80
1380
1180
3F80
61C0
41C0
C1C0
ENDCHAR
STARTCHAR B
ENCODING 66
SWIDTH 42 0
DWIDTH 9 0
BBX 9 10 1 0
BITMAP
3F00
3180
3180
7100
7200
7F00
6300
6300
E300
FE00
ENDCHAR
STARTCHAR C
ENCODING 67
SWIDTH 42 0
DWIDTH 10 0
BBX 10 10 1 0
BITMAP
0FC0
1840
3000
6000
E000
C000
C000
E000
6180
3F00
ENDCHAR
STARTCHAR D
ENCODING 68
SWIDTH 42 0
DWIDTH 12 0
BBX 11 10 1 0
BITMAP
3FC0
38E0
7860
7060
7060
70E0
70C0
E1C0
E380
FE00
ENDCHAR
STARTCHAR E
ENCODING 69
SWIDTH 42 0
DWIDTH 9 0
BBX 9 10 1 0
BITMAP
3F80
3000
3000
7000
7E00
7000
6000
6000
E000
FF00
ENDCHAR
STARTCHAR F
ENCODING 70
SWIDTH 42 0
DWIDTH 9 0
BBX 9 10 1 0
BITMAP
3F80
3000
3000
7000
7E00
6000
6000
6000
E000
E000
ENDCHAR
STARTCHAR G
ENCODING 71
SWIDTH 42 0
DWIDTH 11 0
BBX 10 10 1 0
BITMAP
0FC0
1840
3000
6000
E000
C000
C380
E380
6300
3F00
ENDCHAR
STARTCHAR H
ENCODING 72
SWIDTH 42 0
DWIDTH 11 0
BBX 11 10 1 0
BITMAP
38E0
30E0
70E0
70C0
7FC0
61C0
61C0
E1C0
E180
E380
ENDCHAR
STARTCHAR I
ENCODING 73
SWIDTH 42 0
DWIDTH 5 0
BBX 5 10 1 0
BITMAP
38
38
30
70
70
70
70
60
E0
E0
ENDCHAR
STARTCHAR J
ENCODING 74
SWIDTH 42 0
DWIDTH 7 0
BBX 8 13 0 -3
BITMAP
07
07
07
06
06
0E
0E
0E
0C
0C
1C
1C
F0
ENDCHAR
STARTCHAR K
ENCODING 75
SWIDTH 42 0
DWIDTH 11 0
BBX 10 10 1 0
BITMAP
38C0
3900
3200
7600
7400
7E00
7600
6700
E300
E180
ENDCHAR
STARTCHAR L
ENCODING 76
SWIDTH 42 0
DWIDTH 9 0
BBX 8 10 1 0
BITMAP
38
38
30
70
70
70
70
60
E0
FF
ENDCHAR
STARTCHAR M
ENCODING 77
SWIDTH 42 0
DWIDTH 13 0
BBX 13 10 1 0
BITMAP
3C38
3C78
3C70
6CB0
6CB0
6D70
6F70
6E60
CC60
C0E0
ENDCHAR
STARTCHAR N
ENCODING 78
SWIDTH 42 0
DWIDTH 11 0
BBX 11 10 1 0
BITMAP
3060
3860
38C0
6CC0
6CC0
66C0
66C0
6380
C380
C180
ENDCHAR
STARTCHAR O
ENCODING 79
SWIDTH 42 0
DWIDTH 12 0
BBX 10 10 2 0
BITMAP
0F00
31C0
70C0
60C0
E0C0
C0C0
C180
E180
6300
3C00
ENDCHAR
STARTCHAR P
ENCODING 80
SWIDTH 42 0
DWIDTH 9 0
BBX 9 10 1 0
BITMAP
3F00
3180
7180
7180
7300
7E00
6000
E000
E000
E000
ENDCHAR
STARTCHAR Q
ENCODING 81
SWIDTH 42 0
DWIDTH 12 0
BBX 11 13 2 -3
BITMAP
0F00
31C0
70C0
60C0
E0C0
C0C0
C1C0
E180
6300
3E00
0780
03C0
00E0
ENDCHAR
STARTCHAR R
ENCODING 82
SWIDTH 42 0
DWIDTH 10 0
BBX 9 10 1 0
BITMAP
3F80
3180
7180
7380
7F00
7C00
6600
E600
E600
E300
ENDCHAR
STARTCHAR S
ENCODING 83
SWIDTH 42 0
DWIDTH 9 0
BBX 8 10 1 0
BITMAP
1F
31
70
78
3C
1E
0E
06
86
F8
ENDCHAR
STARTCHAR T
ENCODING 84
SWIDTH 42 0
DWIDTH 10 0
BBX 10 10 2 0
BITMAP
FFC0
1C00
1C00
1C00
1800
1800
1800
3800
3800
3800
ENDCHAR
STARTCHAR U
ENCODING 85
SWIDTH 42 0
DWIDTH 11 0
BBX 10 10 2 0
BITMAP
70C0
71C0
6180
6180
E180
E180
C380
C300
E300
3E00
ENDCHAR
STARTCHAR V
ENCODING 86
SWIDTH 42 0
DWIDTH 11 0
BBX 10 10 2 0
BITMAP
E0C0
E080
E100
6100
7200
7600
7400
7800
7800
3000
ENDCHAR
STARTCHAR W
ENCODING 87
SWIDTH 42 0
DWIDTH 14 0
BBX 12 10 2 0
BITMAP
C610
C630
CE20
CE60
CE40
D6C0
D680
E780
E700
E700
ENDCHAR
STARTCHAR X
ENCODING 88
SWIDTH 42 0
DWIDTH 10 0
BBX 11 10 0 0
BITMAP
3860
1880
1D00
0F00
0E00
0E00
1E00
3700
2300
C380
ENDCHAR
STARTCHAR Y
ENCODING 89
SWIDTH 42 0
DWIDTH 10 0
BBX 9 10 2 0
BITMAP
E180
6200
6600
3400
3800
3800
3800
3000
7000
7000
ENDCHAR
STARTCHAR Z
ENCODING 90
SWIDTH 42 0
DWIDTH 10 0
BBX 10 10 1 0
BITMAP
3FC0
0180
0300
0700
0E00
1C00
3800
3000
6000
FF00
ENDCHAR
STARTCHAR bracketleft
ENCODING 91
SWIDTH 42 0
DWIDTH 5 0
BBX 6 13 1 -3
BITMAP
3C
30
30
30
30
70
60
60
60
60
E0
F0
F0
ENDCHAR
STARTCHAR backslash
ENCODING 92
SWIDTH 42 0
DWIDTH 8 0
BBX 5 13 2 -3
BITMAP
C0
40
40
40
60
20
20
20
30
10
10
10
18
ENDCHAR
STARTCHAR bracketright
ENCODING 93
SWIDTH 42 0
DWIDTH 5 0
BBX 6 13 0 -3
BITMAP
3C
3C
1C
18
18
18
18
38
30
30
30
30
F0
ENDCHAR
STARTCHAR asciicircum
ENCODING 94
SWIDTH 42 0
DWIDTH 10 0
BBX 8 7 1 2
BITMAP
04
0C
1C
12
22
62
C1
ENDCHAR
STARTCHAR underscore
ENCODING 95
SWIDTH 42 0
DWIDTH 7 0
BBX 6 1 0 -2
BITMAP
FC
ENDCHAR
STARTCHAR quoteleft
ENCODING 96
SWIDTH 42 0
DWIDTH 4 0
BBX 4 4 2 6
BITMAP
70
40
F0
E0
ENDCHAR
STARTCHAR a
ENCODING 97
SWIDTH 42 0
DWIDTH 10 0
BBX 9 7 1 0
BITMAP
1F80
3380
6700
C700
CF00
F700
6700
ENDCHAR
STARTCHAR b
ENCODING 98
SWIDTH 42 0
DWIDTH 10 0
BBX 9 10 1 0
BITMAP
3800
3800
3800
7B80
7780
7D80
7980
7300
E600
FC00
ENDCHAR
STARTCHAR c
ENCODING 99
SWIDTH 42 0
DWIDTH 8 0
BBX 7 7 1 0
BITMAP
1E
72
60
E0
C0
E4
78
ENDCHAR
STARTCHAR d
ENCODING 100
SWIDTH 42 0
DWIDTH 10 0
BBX 9 10 1 0
BITMAP
0380
0380
0300
1F00
3700
6700
CF00
DE00
F600
6E00
ENDCHAR
STARTCHAR e
ENCODING 101
SWIDTH 42 0
DWIDTH 9 0
BBX 8 7 1 0
BITMAP
1E
33
73
E6
FC
E1
7E
ENDCHAR
STARTCHAR f
ENCODING 102
SWIDTH 42 0
DWIDTH 6 0
BBX 8 13 1 -3
BITMAP
0F
18
38
7E
30
70
70
70
60
60
E0
E0
E0
ENDCHAR
STARTCHAR g
ENCODING 103
SWIDTH 42 0
DWIDTH 9 0
BBX 9 10 1 -3
BITMAP
0F80
3380
6300
6700
EB00
F300
6700
0600
8600
F800
ENDCHAR
STARTCHAR h
ENCODING 104
SWIDTH 42 0
DWIDTH 9 0
BBX 9 10 1 0
BITMAP
3800
3800
3800
7380
7780
7B00
7300
7300
E300
E700
ENDCHAR
STARTCHAR i
ENCODING 105
SWIDTH 42 0
DWIDTH 5 0
BBX 5 10 1 0
BITMAP
38
00
00
70
70
70
70
60
E0
E0
ENDCHAR
STARTCHAR j
ENCODING 106
SWIDTH 42 0
DWIDTH 6 0
BBX 8 13 0 -3
BITMAP
07
00
00
06
06
0E
0C
0C
0C
0C
1C
18
F0
ENDCHAR
STARTCHAR k
ENCODING 107
SWIDTH 42 0
DWIDTH 9 0
BBX 9 10 1 0
BITMAP
3800
3000
3000
7180
7200
7400
7C00
6E00
E600
E700
ENDCHAR
STARTCHAR l
ENCODING 108
SWIDTH 42 0
DWIDTH 5 0
BBX 5 10 1 0
BITMAP
38
38
30
70
70
70
70
60
E0
E0
ENDCHAR
STARTCHAR m
ENCODING 109
SWIDTH 42 0
DWIDTH 14 0
BBX 13 7 1 0
BITMAP
7738
7F78
6BF8
77B0
6730
E730
E630
ENDCHAR
STARTCHAR n
ENCODING 110
SWIDTH 42 0
DWIDTH 9 0
BBX 9 7 1 0
BITMAP
7380
7780
7B00
7300
7300
E300
E700
ENDCHAR
STARTCHAR o
ENCODING 111
SWIDTH 42 0
DWIDTH 9 0
BBX 8 7 2 0
BITMAP
1E
66
67
C6
C6
CC
78
ENDCHAR
STARTCHAR p
ENCODING 112
SWIDTH 42 0
DWIDTH 10 0
BBX 9 10 1 -3
BITMAP
3B00
3780
7D80
7980
7300
7600
7C00
E000
E000
E000
ENDCHAR
STARTCHAR q
ENCODING 113
SWIDTH 42 0
DWIDTH 10 0
BBX 9 10 1 -3
BITMAP
1F80
3380
6700
C700
DF00
F700
6700
0600
0E00
0E00
ENDCHAR
STARTCHAR r
ENCODING 114
SWIDTH 42 0
DWIDTH 8 0
BBX 8 7 1 0
BITMAP
77
7E
70
70
60
E0
E0
ENDCHAR
STARTCHAR s
ENCODING 115
SWIDTH 42 0
DWIDTH 7 0
BBX 7 7 1 0
BITMAP
1E
32
78
3C
1C
8C
F8
ENDCHAR
STARTCHAR t
ENCODING 116
SWIDTH 42 0
DWIDTH 6 0
BBX 5 9 2 0
BITMAP
70
70
F8
60
60
E0
C0
F0
70
ENDCHAR
STARTCHAR u
ENCODING 117
SWIDTH 42 0
DWIDTH 9 0
BBX 9 7 1 0
BITMAP
7380
6380
6700
6700
6F00
F700
E700
ENDCHAR
STARTCHAR v
ENCODING 118
SWIDTH 42 0
DWIDTH 9 0
BBX 9 7 1 0
BITMAP
E180
E300
6200
7400
7C00
7800
7000
ENDCHAR
STARTCHAR w
ENCODING 119
SWIDTH 42 0
DWIDTH 12 0
BBX 12 7 2 0
BITMAP
C630
C620
CA40
DB40
D380
E380
E300
ENDCHAR
STARTCHAR x
ENCODING 120
SWIDTH 42 0
DWIDTH 8 0
BBX 9 7 0 0
BITMAP
3980
3A00
1C00
1C00
1C00
2E00
C700
ENDCHAR
STARTCHAR y
ENCODING 121
SWIDTH 42 0
DWIDTH 9 0
BBX 10 10 0 -3
BITMAP
70C0
7180
3300
3A00
3C00
3C00
3800
1000
3000
E000
ENDCHAR
STARTCHAR z
ENCODING 122
SWIDTH 42 0
DWIDTH 9 0
BBX 9 7 0 0
BITMAP
7F80
0300
0E00
1C00
3000
6000
FF00
ENDCHAR
STARTCHAR braceleft
ENCODING 123
SWIDTH 42 0
DWIDTH 5 0
BBX 6 13 1 -3
BITMAP
1C
3C
38
38
18
30
C0
70
70
70
E0
F0
60
ENDCHAR
STARTCHAR bar
ENCODING 124
SWIDTH 42 0
DWIDTH 4 0
BBX 4 13 1 -3
BITMAP
10
10
20
20
20
20
60
40
40
40
40
80
80
ENDCHAR
STARTCHAR braceright
ENCODING 125
SWIDTH 42 0
DWIDTH 5 0
BBX 6 13 0 -3
BITMAP
18
3C
1C
38
38
38
1C
30
60
70
70
F0
E0
ENDCHAR
STARTCHAR asciitilde
ENCODING 126
SWIDTH 42 0
DWIDTH 10 0
BBX 9 3 1 2
BITMAP
7080
C980
8700
ENDCHAR
STARTCHAR exclamdown
ENCODING 161
SWIDTH 42 0
DWIDTH 5 0
BBX 5 10 0 -3
BITMAP
38
00
00
30
30
70
60
60
E0
E0
ENDCHAR
STARTCHAR cent
ENCODING 162
SWIDTH 42 0
DWIDTH 10 0
BBX 7 10 2 0
BITMAP
04
0E
3E
60
E0
C0
C2
FC
30
30
ENDCHAR
STARTCHAR sterling
ENCODING 163
SWIDTH 42 0
DWIDTH 10 0
BBX 9 10 1 0
BITMAP
0F80
1C80
1C00
1C00
1800
7E00
3800
3800
2000
FF00
ENDCHAR
STARTCHAR currency
ENCODING 164
SWIDTH 42 0
DWIDTH 10 0
BBX 11 10 0 0
BITMAP
2020
2060
1680
1900
1180
3100
1300
3F00
C080
8080
ENDCHAR
STARTCHAR yen
ENCODING 165
SWIDTH 42 0
DWIDTH 10 0
BBX 9 10 2 0
BITMAP
E180
6200
3400
3800
FC00
3800
FC00
3000
7000
7000
ENDCHAR
STARTCHAR brokenbar
ENCODING 166
SWIDTH 42 0
DWIDTH 4 0
BBX 4 13 1 -3
BITMAP
10
10
10
20
20
00
00
00
40
40
80
80
80
ENDCHAR
STARTCHAR section
ENCODING 167
SWIDTH 42 0
DWIDTH 10 0
BBX 9 13 1 -3
BITMAP
1F80
3880
3800
3E00
1F00
2700
6100
7900
7E00
1F00
0700
8600
FC00
ENDCHAR
STARTCHAR dieresis
ENCODING 168
SWIDTH 42 0
DWIDTH 9 0
BBX 5 1 4 9
BITMAP
D8
ENDCHAR
STARTCHAR copyright
ENCODING 169
SWIDTH 42 0
DWIDTH 12 0
BBX 9 10 2 0
BITMAP
1C00
6300
9E80
A080
A080
A080
A080
9E80
6300
1C00
ENDCHAR
STARTCHAR ordfeminine
ENCODING 170
SWIDTH 42 0
DWIDTH 8 0
BBX 7 5 2 5
BITMAP
3E
4E
DC
FC
FC
ENDCHAR
STARTCHAR guillemotleft
ENCODING 171
SWIDTH 42 0
DWIDTH 9 0
BBX 8 7 1 0
BITMAP
11
13
24
EC
6C
66
34
ENDCHAR
STARTCHAR logicalnot
ENCODING 172
SWIDTH 42 0
DWIDTH 10 0
BBX 8 5 2 1
BITMAP
FF
03
03
02
02
ENDCHAR
STARTCHAR hyphen
ENCODING 173
SWIDTH 42 0
DWIDTH 4 0
BBX 3 1 1 4
BITMAP
E0
ENDCHAR
STARTCHAR registered
ENCODING 174
SWIDTH 42 0
DWIDTH 10 0
BBX 6 7 3 3
BITMAP
38
44
BC
BC
EC
44
38
ENDCHAR
STARTCHAR macron
ENCODING 175
SWIDTH 42 0
DWIDTH 9 0
BBX 5 1 4 9
BITMAP
F8
ENDCHAR
STARTCHAR degree
ENCODING 176
SWIDTH 42 0
DWIDTH 3 0
BBX 1 2 3 8
BITMAP
80
80
ENDCHAR
STARTCHAR plusminus
ENCODING 177
SWIDTH 42 0
DWIDTH 10 0
BBX 9 8 1 0
BITMAP
0400
0400
0400
7F80
0800
0800
0000
FF00
ENDCHAR
STARTCHAR twosuperior
ENCODING 178
SWIDTH 42 0
DWIDTH 6 0
BBX 5 6 -8 4
BITMAP
78
08
18
20
40
F0
ENDCHAR
STARTCHAR threesuperior
ENCODING 179
SWIDTH 42 0
DWIDTH 6 0
BBX 5 6 -8 4
BITMAP
78
08
70
10
18
F0
ENDCHAR
STARTCHAR acute
ENCODING 180
SWIDTH 42 0
DWIDTH 9 0
BBX 4 1 5 9
BITMAP
F0
ENDCHAR
STARTCHAR mu
ENCODING 181
SWIDTH 42 0
DWIDTH 10 0
BBX 9 10 1 -3
BITMAP
3380
3380
7300
7700
6B00
7F00
7700
E000
E000
E000
ENDCHAR
STARTCHAR paragraph
ENCODING 182
SWIDTH 42 0
DWIDTH 10 0
BBX 6 13 3 -3
BITMAP
7C
FC
FC
E8
68
28
28
28
48
50
50
50
50
ENDCHAR
STARTCHAR periodcentered
ENCODING 183
SWIDTH 42 0
DWIDTH 10 0
BBX 2 1 5 4
BITMAP
C0
ENDCHAR
STARTCHAR cedilla
ENCODING 184
SWIDTH 42 0
DWIDTH 9 0
BBX 3 3 3 -3
BITMAP
60
20
E0
ENDCHAR
STARTCHAR onesuperior
ENCODING 185
SWIDTH 42 0
DWIDTH 6 0
BBX 3 6 -9 4
BITMAP
E0
60
40
40
C0
C0
ENDCHAR
STARTCHAR ordmasculine
ENCODING 186
SWIDTH 42 0
DWIDTH 8 0
BBX 7 5 2 5
BITMAP
3C
66
C6
CC
78
ENDCHAR
STARTCHAR guillemotright
ENCODING 187
SWIDTH 42 0
DWIDTH 9 0
BBX 8 7 1 0
BITMAP
2C
66
36
37
24
C8
88
ENDCHAR
STARTCHAR onequarter
ENCODING 188
SWIDTH 42 0
DWIDTH 13 0
BBX 11 10 4 0
BITMAP
E060
6080
4100
4200
C660
CCE0
1940
13E0
2040
C0C0
ENDCHAR
STARTCHAR onehalf
ENCODING 189
SWIDTH 42 0
DWIDTH 13 0
BBX 11 10 4 0
BITMAP
E060
6080
4100
4200
C7E0
CC20
1860
1080
2100
C3C0
ENDCHAR
STARTCHAR threequarters
ENCODING 190
SWIDTH 42 0
DWIDTH 13 0
BBX 12 10 5 0
BITMAP
7830
0840
7080
1100
1B30
F670
0CA0
09F0
1020
6060
ENDCHAR
STARTCHAR questiondown
ENCODING 191
SWIDTH 42 0
DWIDTH 8 0
BBX 7 10 0 -3
BITMAP
0E
00
00
0C
1C
30
60
C0
E2
7E
ENDCHAR
STARTCHAR Agrave
ENCODING 192
SWIDTH 42 0
DWIDTH 11 0
BBX 10 12 0 0
BITMAP
0380
0000
0700
0700
0F80
0B80
1380
1180
3F80
61C0
41C0
C1C0
ENDCHAR
STARTCHAR Aacute
ENCODING 193
SWIDTH 42 0
DWIDTH 11 0
BBX 10 12 0 0
BITMAP
03C0
0000
0700
0700
0F80
0B80
1380
1180
3F80
61C0
41C0
C1C0
ENDCHAR
STARTCHAR Acircumflex
ENCODING 194
SWIDTH 42 0
DWIDTH 11 0
BBX 10 12 0 0
BITMAP
07C0
0000
0700
0700
0F80
0B80
1380
1180
3F80
61C0
41C0
C1C0
ENDCHAR
STARTCHAR Atilde
ENCODING 195
SWIDTH 42 0
DWIDTH 11 0
BBX 10 12 0 0
BITMAP
07C0
0000
0700
0700
0F80
0B80
1380
1180
3F80
61C0
41C0
C1C0
ENDCHAR
STARTCHAR Adieresis
ENCODING 196
SWIDTH 42 0
DWIDTH 11 0
BBX 10 12 0 0
BITMAP
06C0
0000
0700
0700
0F80
0B80
1380
1180
3F80
61C0
41C0
C1C0
ENDCHAR
STARTCHAR Aring
ENCODING 197
SWIDTH 42 0
DWIDTH 11 0
BBX 10 12 0 0
BITMAP
0300
0000
0700
0700
0F80
0B80
1380
1180
3F80
61C0
41C0
C1C0
ENDCHAR
STARTCHAR AE
ENCODING 198
SWIDTH 42 0
DWIDTH 14 0
BBX 15 10 0 0
BITMAP
00FE
01C0
02C0
07C0
05F8
09C0
1F80
3180
6380
C3FC
ENDCHAR
STARTCHAR Ccedilla
ENCODING 199
SWIDTH 42 0
DWIDTH 10 0
BBX 10 13 1 -3
BITMAP
0FC0
1840
3000
6000
E000
C000
C000
E000
6180
3F00
1000
0800
3800
ENDCHAR
STARTCHAR Egrave
ENCODING 200
SWIDTH 42 0
DWIDTH 9 0
BBX 9 12 1 0
BITMAP
0E00
0000
3F80
3000
3000
7000
7E00
7000
6000
6000
E000
FF00
ENDCHAR
STARTCHAR Eacute
ENCODING 201
SWIDTH 42 0
DWIDTH 9 0
BBX 9 12 1 0
BITMAP
0F00
0000
3F80
3000
3000
7000
7E00
7000
6000
6000
E000
FF00
ENDCHAR
STARTCHAR Ecircumflex
ENCODING 202
SWIDTH 42 0
DWIDTH 9 0
BBX 9 12 1 0
BITMAP
1F00
0000
3F80
3000
3000
7000
7E00
7000
6000
6000
E000
FF00
ENDCHAR
STARTCHAR Edieresis
ENCODING 203
SWIDTH 42 0
DWIDTH 9 0
BBX 9 12 1 0
BITMAP
1B00
0000
3F80
3000
3000
7000
7E00
7000
6000
6000
E000
FF00
ENDCHAR
STARTCHAR Igrave
ENCODING 204
SWIDTH 42 0
DWIDTH 5 0
BBX 5 12 1 0
BITMAP
38
00
38
38
30
70
70
70
70
60
E0
E0
ENDCHAR
STARTCHAR Iacute
ENCODING 205
SWIDTH 42 0
DWIDTH 5 0
BBX 6 12 1 0
BITMAP
3C
00
38
38
30
70
70
70
70
60
E0
E0
ENDCHAR
STARTCHAR Icircumflex
ENCODING 206
SWIDTH 42 0
DWIDTH 5 0
BBX 6 12 1 0
BITMAP
7C
00
38
38
30
70
70
70
70
60
E0
E0
ENDCHAR
STARTCHAR Idieresis
ENCODING 207
SWIDTH 42 0
DWIDTH 5 0
BBX 6 12 1 0
BITMAP
6C
00
38
38
30
70
70
70
70
60
E0
E0
ENDCHAR
STARTCHAR Eth
ENCODING 208
SWIDTH 42 0
DWIDTH 12 0
BBX 11 10 1 0
BITMAP
3FC0
38E0
3860
3860
FE60
70E0
70C0
71C0
6380
FE00
ENDCHAR
STARTCHAR Ntilde
ENCODING 209
SWIDTH 42 0
DWIDTH 11 0
BBX 11 12 1 0
BITMAP
0F80
0000
3060
3860
38C0
6CC0
6CC0
66C0
66C0
6380
C380
C180
ENDCHAR
STARTCHAR Ograve
ENCODING 210
SWIDTH 42 0
DWIDTH 12 0
BBX 10 12 2 0
BITMAP
0700
0000
0F00
31C0
70C0
60C0
E0C0
C0C0
C180
E180
6300
3C00
ENDCHAR
STARTCHAR Oacute
ENCODING 211
SWIDTH 42 0
DWIDTH 12 0
BBX 10 12 2 0
BITMAP
0780
0000
0F00
31C0
70C0
60C0
E0C0
C0C0
C180
E180
6300
3C00
ENDCHAR
STARTCHAR Ocircumflex
ENCODING 212
SWIDTH 42 0
DWIDTH 12 0
BBX 10 12 2 0
BITMAP
0F80
0000
0F00
31C0
70C0
60C0
E0C0
C0C0
C180
E180
6300
3C00
ENDCHAR
STARTCHAR Otilde
ENCODING 213
SWIDTH 42 0
DWIDTH 12 0
BBX 10 12 2 0
BITMAP
0F80
0000
0F00
31C0
70C0
60C0
E0C0
C0C0
C180
E180
6300
3C00
ENDCHAR
STARTCHAR Odieresis
ENCODING 214
SWIDTH 42 0
DWIDTH 12 0
BBX 10 12 2 0
BITMAP
0D80
0000
0F00
31C0
70C0
60C0
E0C0
C0C0
C180
E180
6300
3C00
ENDCHAR
STARTCHAR multiply
ENCODING 215
SWIDTH 42 0
DWIDTH 10 0
BBX 9 8 1 0
BITMAP
6080
2180
1600
1C00
1C00
3400
C200
8300
ENDCHAR
STARTCHAR Oslash
ENCODING 216
SWIDTH 42 0
DWIDTH 12 0
BBX 13 10 3 0
BITMAP
07B8
18E0
38E0
31E0
7360
6660
6CC0
78C0
3180
FE00
ENDCHAR
STARTCHAR Ugrave
ENCODING 217
SWIDTH 42 0
DWIDTH 11 0
BBX 10 12 2 0
BITMAP
0E00
0000
70C0
71C0
6180
6180
E180
E180
C380
C300
E300
3E00
ENDCHAR
STARTCHAR Uacute
ENCODING 218
SWIDTH 42 0
DWIDTH 11 0
BBX 10 12 2 0
BITMAP
0F00
0000
70C0
71C0
6180
6180
E180
E180
C380
C300
E300
3E00
ENDCHAR
STARTCHAR Ucircumflex
ENCODING 219
SWIDTH 42 0
DWIDTH 11 0
BBX 10 12 2 0
BITMAP
1F00
0000
70C0
71C0
6180
6180
E180
E180
C380
C300
E300
3E00
ENDCHAR
STARTCHAR Udieresis
ENCODING 220
SWIDTH 42 0
DWIDTH 11 0
BBX 10 12 2 0
BITMAP
1B00
0000
70C0
71C0
6180
6180
E180
E180
C380
C300
E300
3E00
ENDCHAR
STARTCHAR Yacute
ENCODING 221
SWIDTH 42 0
DWIDTH 10 0
BBX 9 12 2 0
BITMAP
1E00
0000
E180
6200
6600
3400
3800
3800
3800
3000
7000
7000
ENDCHAR
STARTCHAR Thorn
ENCODING 222
SWIDTH 42 0
DWIDTH 9 0
BBX 9 10 1 0
BITMAP
3800
3000
3F00
7180
7180
7180
6300
7C00
E000
E000
ENDCHAR
STARTCHAR germandbls
ENCODING 223
SWIDTH 42 0
DWIDTH 10 0
BBX 9 13 1 -3
BITMAP
0F00
1B80
3B00
3600
3600
3700
7380
7380
6980
6F00
6000
E000
E000
ENDCHAR
STARTCHAR agrave
ENCODING 224
SWIDTH 42 0
DWIDTH 10 0
BBX 9 9 1 0
BITMAP
0E00
0000
1F80
3380
6700
C700
CF00
F700
6700
ENDCHAR
STARTCHAR aacute
ENCODING 225
SWIDTH 42 0
DWIDTH 10 0
BBX 9 9 1 0
BITMAP
0F00
0000
1F80
3380
6700
C700
CF00
F700
6700
ENDCHAR
STARTCHAR acircumflex
ENCODING 226
SWIDTH 42 0
DWIDTH 10 0
BBX 9 9 1 0
BITMAP
1F00
0000
1F80
3380
6700
C700
CF00
F700
6700
ENDCHAR
STARTCHAR atilde
ENCODING 227
SWIDTH 42 0
DWIDTH 10 0
BBX 9 9 1 0
BITMAP
1F00
0000
1F80
3380
6700
C700
CF00
F700
6700
ENDCHAR
STARTCHAR adieresis
ENCODING 228
SWIDTH 42 0
DWIDTH 10 0
BBX 9 9 1 0
BITMAP
1B00
0000
1F80
3380
6700
C700
CF00
F700
6700
ENDCHAR
STARTCHAR aring
ENCODING 229
SWIDTH 42 0
DWIDTH 10 0
BBX 9 9 1 0
BITMAP
0600
0000
1F80
3380
6700
C700
CF00
F700
6700
ENDCHAR
STARTCHAR ae
ENCODING 230
SWIDTH 42 0
DWIDTH 14 0
BBX 13 7 1 0
BITMAP
1FF0
3398
6730
CFE0
DB08
F318
63F0
ENDCHAR
STARTCHAR ccedilla
ENCODING 231
SWIDTH 42 0
DWIDTH 8 0
BBX 7 10 1 -3
BITMAP
1E
72
60
E0
C0
E4
78
20
10
70
ENDCHAR
STARTCHAR egrave
ENCODING 232
SWIDTH 42 0
DWIDTH 9 0
BBX 8 9 1 0
BITMAP
0E
00
1E
33
73
E6
FC
E1
7E
ENDCHAR
STARTCHAR eacute
ENCODING 233
SWIDTH 42 0
DWIDTH 9 0
BBX 8 9 1 0
BITMAP
0F
00
1E
33
73
E6
FC
E1
7E
ENDCHAR
STARTCHAR ecircumflex
ENCODING 234
SWIDTH 42 0
DWIDTH 9 0
BBX 8 9 1 0
BITMAP
1F
00
1E
33
73
E6
FC
E1
7E
ENDCHAR
STARTCHAR edieresis
ENCODING 235
SWIDTH 42 0
DWIDTH 9 0
BBX 8 9 1 0
BITMAP
1B
00
1E
33
73
E6
FC
E1
7E
ENDCHAR
STARTCHAR igrave
ENCODING 236
SWIDTH 42 0
DWIDTH 5 0
BBX 5 9 1 0
BITMAP
38
00
70
70
60
60
60
E0
E0
ENDCHAR
STARTCHAR iacute
ENCODING 237
SWIDTH 42 0
DWIDTH 5 0
BBX 6 9 1 0
BITMAP
3C
00
70
70
60
60
60
E0
E0
ENDCHAR
STARTCHAR icircumflex
ENCODING 238
SWIDTH 42 0
DWIDTH 5 0
BBX 6 9 1 0
BITMAP
7C
00
70
70
60
60
60
E0
E0
ENDCHAR
STARTCHAR idieresis
ENCODING 239
SWIDTH 42 0
DWIDTH 5 0
BBX 6 9 1 0
BITMAP
6C
00
70
70
60
60
60
E0
E0
ENDCHAR
STARTCHAR eth
ENCODING 240
SWIDTH 42 0
DWIDTH 9 0
BBX 7 12 2 0
BITMAP
04
0C
78
1C
26
3E
26
66
C6
C6
EC
78
ENDCHAR
STARTCHAR ntilde
ENCODING 241
SWIDTH 42 0
DWIDTH 9 0
BBX 9 9 1 0
BITMAP
0F80
0000
7380
7780
7B00
7300
7300
E300
E700
ENDCHAR
STARTCHAR ograve
ENCODING 242
SWIDTH 42 0
DWIDTH 9 0
BBX 8 9 2 0
BITMAP
0E
00
1E
66
67
C6
C6
CC
78
ENDCHAR
STARTCHAR oacute
ENCODING 243
SWIDTH 42 0
DWIDTH 9 0
BBX 8 9 2 0
BITMAP
0F
00
1E
66
67
C6
C6
CC
78
ENDCHAR
STARTCHAR ocircumflex
ENCODING 244
SWIDTH 42 0
DWIDTH 9 0
BBX 8 9 2 0
BITMAP
1F
00
1E
66
67
C6
C6
CC
78
ENDCHAR
STARTCHAR otilde
ENCODING 245
SWIDTH 42 0
DWIDTH 9 0
BBX 8 9 2 0
BITMAP
1F
00
1E
66
67
C6
C6
CC
78
ENDCHAR
STARTCHAR odieresis
ENCODING 246
SWIDTH 42 0
DWIDTH 9 0
BBX 8 9 2 0
BITMAP
1B
00
1E
66
67
C6
C6
CC
78
ENDCHAR
STARTCHAR divide
ENCODING 247
SWIDTH 42 0
DWIDTH 10 0
BBX 8 8 2 0
BITMAP
1C
00
00
FF
00
00
00
38
ENDCHAR
STARTCHAR oslash
ENCODING 248
SWIDTH 42 0
DWIDTH 9 0
BBX 10 7 3 0
BITMAP
0FC0
3300
3780
6F00
7B00
7600
FC00
ENDCHAR
STARTCHAR ugrave
ENCODING 249
SWIDTH 42 0
DWIDTH 9 0
BBX 9 9 1 0
BITMAP
0E00
0000
7380
6380
6700
6700
6F00
F700
E700
ENDCHAR
STARTCHAR uacute
ENCODING 250
SWIDTH 42 0
DWIDTH 9 0
BBX 9 9 1 0
BITMAP
0F00
0000
7380
6380
6700
6700
6F00
F700
E700
ENDCHAR
STARTCHAR ucircumflex
ENCODING 251
SWIDTH 42 0
DWIDTH 9 0
BBX 9 9 1 0
BITMAP
1F00
0000
7380
6380
6700
6700
6F00
F700
E700
ENDCHAR
STARTCHAR udieresis
ENCODING 252
SWIDTH 42 0
DWIDTH 9 0
BBX 9 9 1 0
BITMAP
1B00
0000
7380
6380
6700
6700
6F00
F700
E700
ENDCHAR
STARTCHAR yacute
ENCODING 253
SWIDTH 42 0
DWIDTH 9 0
BBX 10 12 0 -3
BITMAP
0780
0000
70C0
7180
3300
3A00
3C00
3C00
3800
1000
3000
E000
ENDCHAR
STARTCHAR thorn
ENCODING 254
SWIDTH 42 0
DWIDTH 10 0
BBX 9 13 1 -3
BITMAP
3800
3800
3800
3B80
3F80
7580
7980
7300
7200
7C00
E000
E000
E000
ENDCHAR
STARTCHAR ydieresis
ENCODING 255
SWIDTH 42 0
DWIDTH 9 0
BBX 10 12 0 -3
BITMAP
0D80
0000
70C0
7180
3300
3A00
3C00
3C00
3800
1000
3000
E000
ENDCHAR
STARTCHAR fl
ENCODING -1
SWIDTH 42 0
DWIDTH 10 0
BBX 10 13 1 -3
BITMAP
0FC0
19C0
3980
7D80
3380
7380
7380
7300
7700
6700
E000
E000
E000
ENDCHAR
STARTCHAR endash
ENCODING -1
SWIDTH 42 0
DWIDTH 7 0
BBX 6 1 1 4
BITMAP
FC
ENDCHAR
STARTCHAR dagger
ENCODING -1
SWIDTH 42 0
DWIDTH 10 0
BBX 7 13 3 -3
BITMAP
1C
18
18
18
FE
30
30
30
30
70
70
60
60
ENDCHAR
STARTCHAR Zcaron
ENCODING -1
SWIDTH 42 0
DWIDTH 10 0
BBX 10 12 1 0
BITMAP
0F80
0000
3FC0
0180
0300
0700
0E00
1C00
3800
3000
6000
FF00
ENDCHAR
STARTCHAR oe
ENCODING -1
SWIDTH 42 0
DWIDTH 14 0
BBX 13 7 1 0
BITMAP
1FF0
2798
67B0
C7E0
C708
CF98
7FF0
ENDCHAR
STARTCHAR Ydieresis
ENCODING -1
SWIDTH 42 0
DWIDTH 10 0
BBX 9 12 2 0
BITMAP
3600
0000
E180
6200
6600
3400
3800
3800
3800
3000
7000
7000
ENDCHAR
STARTCHAR dotlessi
ENCODING -1
SWIDTH 42 0
DWIDTH 5 0
BBX 4 7 1 0
BITMAP
70
70
60
60
60
E0
E0
ENDCHAR
STARTCHAR lslash
ENCODING -1
SWIDTH 42 0
DWIDTH 5 0
BBX 6 10 1 0
BITMAP
18
38
3C
3C
38
F0
F0
70
60
60
ENDCHAR
STARTCHAR Lslash
ENCODING -1
SWIDTH 42 0
DWIDTH 9 0
BBX 8 10 1 0
BITMAP
18
38
38
3C
3C
70
F0
F0
70
7F
ENDCHAR
STARTCHAR daggerdbl
ENCODING -1
SWIDTH 42 0
DWIDTH 10 0
BBX 8 13 2 -3
BITMAP
0C
0C
0C
1C
7F
18
18
18
FE
38
30
30
30
ENDCHAR
STARTCHAR fi
ENCODING -1
SWIDTH 42 0
DWIDTH 10 0
BBX 9 13 1 -3
BITMAP
0F00
1800
3800
7F80
3380
7300
7300
7700
6700
6700
E000
E000
E000
ENDCHAR
STARTCHAR guilsinglright
ENCODING -1
SWIDTH 42 0
DWIDTH 5 0
BBX 5 7 1 0
BITMAP
20
70
30
38
20
C0
80
ENDCHAR
STARTCHAR OE
ENCODING -1
SWIDTH 42 0
DWIDTH 15 0
BBX 15 10 1 0
BITMAP
0FFE
31C0
71C0
61C0
E1F8
C1C0
C3C0
E380
6380
3FFC
ENDCHAR
STARTCHAR emdash
ENCODING -1
SWIDTH 42 0
DWIDTH 14 0
BBX 13 1 1 3
BITMAP
FFF8
ENDCHAR
STARTCHAR caron
ENCODING -1
SWIDTH 42 0
DWIDTH 9 0
BBX 5 1 4 9
BITMAP
F8
ENDCHAR
STARTCHAR ogonek
ENCODING -1
SWIDTH 42 0
DWIDTH 9 0
BBX 3 1 3 -3
BITMAP
E0
ENDCHAR
STARTCHAR hungarumlaut
ENCODING -1
SWIDTH 42 0
DWIDTH 9 0
BBX 6 1 4 9
BITMAP
FC
ENDCHAR
STARTCHAR guilsinglleft
ENCODING -1
SWIDTH 42 0
DWIDTH 5 0
BBX 5 7 1 0
BITMAP
08
18
20
E0
60
70
20
ENDCHAR
STARTCHAR dotaccent
ENCODING -1
SWIDTH 42 0
DWIDTH 9 0
BBX 2 1 6 9
BITMAP
C0
ENDCHAR
STARTCHAR breve
ENCODING -1
SWIDTH 42 0
DWIDTH 9 0
BBX 5 1 4 9
BITMAP
F8
ENDCHAR
STARTCHAR bullet
ENCODING -1
SWIDTH 42 0
DWIDTH 10 0
BBX 6 5 3 1
BITMAP
7C
7C
FC
F8
F8
ENDCHAR
STARTCHAR tilde
ENCODING -1
SWIDTH 42 0
DWIDTH 9 0
BBX 5 1 4 9
BITMAP
F8
ENDCHAR
STARTCHAR circumflex
ENCODING -1
SWIDTH 42 0
DWIDTH 9 0
BBX 5 1 4 9
BITMAP
F8
ENDCHAR
STARTCHAR quotedblleft
ENCODING -1
SWIDTH 42 0
DWIDTH 7 0
BBX 7 4 2 6
BITMAP
66
4C
EE
EC
ENDCHAR
STARTCHAR quotesingle
ENCODING -1
SWIDTH 42 0
DWIDTH 4 0
BBX 3 4 2 6
BITMAP
E0
E0
C0
40
ENDCHAR
STARTCHAR scaron
ENCODING -1
SWIDTH 42 0
DWIDTH 7 0
BBX 8 9 1 0
BITMAP
1F
00
1E
32
78
3C
1C
8C
F8
ENDCHAR
STARTCHAR ring
ENCODING -1
SWIDTH 42 0
DWIDTH 9 0
BBX 2 1 6 9
BITMAP
C0
ENDCHAR
STARTCHAR quotesinglbase
ENCODING -1
SWIDTH 42 0
DWIDTH 4 0
BBX 4 5 0 -3
BITMAP
70
F0
70
60
C0
ENDCHAR
STARTCHAR florin
ENCODING -1
SWIDTH 42 0
DWIDTH 10 0
BBX 8 13 3 -3
BITMAP
0F
18
38
30
FC
70
70
70
60
60
E0
E0
E0
ENDCHAR
STARTCHAR trademark
ENCODING -1
SWIDTH 42 0
DWIDTH 13 0
BBX 12 5 2 5
BITMAP
FB70
7370
6770
67E0
6560
ENDCHAR
STARTCHAR fraction
ENCODING -1
SWIDTH 42 0
DWIDTH 2 0
BBX 11 10 -3 0
BITMAP
0060
0080
0100
0200
0600
0C00
1800
1000
2000
C000
ENDCHAR
STARTCHAR grave
ENCODING -1
SWIDTH 42 0
DWIDTH 9 0
BBX 3 1 5 9
BITMAP
E0
ENDCHAR
STARTCHAR perthousand
ENCODING -1
SWIDTH 42 0
DWIDTH 19 0
BBX 18 10 1 0
BITMAP
703000
D84000
D88000
D90000
720000
04E380
0936C0
1336C0
2326C0
C1E380
ENDCHAR
STARTCHAR ellipsis
ENCODING -1
SWIDTH 42 0
DWIDTH 14 0
BBX 11 1 2 0
BITMAP
C460
ENDCHAR
STARTCHAR quotedblright
ENCODING -1
SWIDTH 42 0
DWIDTH 7 0
BBX 7 4 2 6
BITMAP
6E
EE
64
CC
ENDCHAR
STARTCHAR Scaron
ENCODING -1
SWIDTH 42 0
DWIDTH 9 0
BBX 8 12 1 0
BITMAP
1F
00
1F
31
70
78
3C
1E
0E
06
86
F8
ENDCHAR
STARTCHAR quotedblbase
ENCODING -1
SWIDTH 42 0
DWIDTH 7 0
BBX 7 5 0 -3
BITMAP
6E
EE
66
64
CC
ENDCHAR
STARTCHAR zcaron
ENCODING -1
SWIDTH 42 0
DWIDTH 9 0
BBX 9 9 0 0
BITMAP
0F80
0000
7F80
0300
0E00
1C00
3000
6000
FF00
ENDCHAR
ENDFONT
